<svg viewBox="0 0 512 512" xmlns="http://www.w3.org/2000/svg" fill-rule="evenodd" clip-rule="evenodd" stroke-linejoin="round" stroke-miterlimit="2"><path d="M68.5 6h375C477.875 6 506 34.125 506 68.5v375c0 34.374-28.125 62.5-62.5 62.5h-375C34.125 506 6 477.873 6 443.5v-83.97l.881.513c21.325 12.419 71.75 41.781 84.1 48.756 7.475 4.22 14.625 4.113 21.831-.037 4.313-2.488 51.594-29.7 99.375-57.194l.232-.131.95-.55c49.712-28.606 99.58-57.306 101.787-58.581 4.331-2.5 4.55-10.169-.3-12.938l-3.4-1.937-.025-.019c-4.944-2.813-11.337-6.45-14.062-8.05-3.488-2.031-9.763-3.163-15.588.187-2.412 1.394-164.081 94.35-169.481 97.425-6.469 3.675-14.475 3.725-20.919-.006-5.094-2.95-85.381-49.6-85.381-49.6v-42.087l.887.518c21.325 12.42 71.744 41.782 84.094 48.75 7.475 4.22 14.625 4.12 21.831-.037 4.32-2.488 51.663-29.731 99.475-57.25l.382-.219.293-.169.17-.1c49.787-28.65 99.812-57.443 102.024-58.712 4.331-2.5 4.55-10.175-.3-12.944l-3.4-1.937c-4.944-2.813-11.356-6.469-14.087-8.069-3.488-2.031-9.763-3.162-15.588.188-2.412 1.393-164.081 94.35-169.481 97.424-6.469 3.675-14.475 3.725-20.919-.006C86.287 279.774 6 233.118 6 233.118v-42.081l.875.513c21.319 12.412 71.756 41.78 84.106 48.756 7.475 4.219 14.625 4.119 21.831-.038l99.594-57.318.125-.07c49.988-28.768 100.406-57.787 102.625-59.062 4.331-2.506 4.55-10.175-.3-12.943l-3.4-1.938c-4.944-2.812-11.356-6.469-14.087-8.062-3.488-2.038-9.763-3.17-15.588.18-2.412 1.395-164.081 94.357-169.481 97.426-6.469 3.675-14.475 3.725-20.919-.006C86.287 195.53 6 148.875 6 148.875V68.5C6 34.125 34.125 6 68.5 6z" fill="#e44232"/><path d="M112.812 240.262c4.32-2.487 51.738-29.775 99.594-57.312l.125-.075c49.988-28.77 100.406-57.782 102.625-59.063 4.331-2.5 4.55-10.175-.3-12.937l-3.4-1.938c-4.944-2.819-11.356-6.469-14.087-8.069-3.488-2.037-9.763-3.168-15.582.188-2.418 1.394-164.087 94.35-169.487 97.419-6.469 3.68-14.475 3.725-20.919-.007C86.287 195.525 6 148.868 6 148.868v42.169l.875.506c21.319 12.413 71.756 41.788 84.106 48.757 7.475 4.225 14.625 4.118 21.831-.038z" fill="#fff" fill-rule="nonzero"/><path d="M112.812 324.512c4.32-2.488 51.663-29.738 99.475-57.25l.382-.219c49.943-28.743 100.268-57.706 102.487-58.987 4.331-2.5 4.55-10.169-.3-12.938l-3.4-1.937c-4.944-2.813-11.356-6.469-14.087-8.069-3.488-2.031-9.763-3.162-15.582.188-2.418 1.393-164.087 94.35-169.487 97.424-6.469 3.675-14.475 3.725-20.919-.006-5.094-2.95-85.381-49.6-85.381-49.6v42.163l.887.518c21.325 12.42 71.744 41.775 84.094 48.75 7.475 4.22 14.625 4.113 21.831-.037z" fill="#fff" fill-rule="nonzero"/><path d="M212.419 351.43a354703.563 354703.563 0 00-99.607 57.326c-7.206 4.15-14.356 4.256-21.83.037-12.35-6.975-62.776-36.337-84.1-48.756L6 359.524v-42.168s80.287 46.656 85.381 49.6c6.444 3.731 14.45 3.687 20.919.006 5.4-3.069 167.069-96.025 169.487-97.419 5.82-3.356 12.094-2.225 15.582-.187 2.73 1.6 9.143 5.25 14.087 8.068 1.256.713 2.419 1.375 3.4 1.938 4.85 2.762 4.631 10.437.3 12.937-2.219 1.282-52.712 30.338-102.737 59.132z" fill="#fff" fill-rule="nonzero"/></svg>